inDegrees=no
num_controls=7
num_derivatives=13
num_iterations=97
num_multipliers=7
num_parameters=0
num_slacks=7
num_states=26
objective=0.518673
objective_accelerations=0.037954
objective_balance=0.001726
objective_effort=0.041315
objective_height=0.426125
objective_ligament=0.011554
solver_duration=1287.315073
status=Solve_Succeeded
success=true
DataType=double
version=3
OpenSimVersion=4.5
endheader
time	/jointset/ground_pelvis/pelvis_tilt/value	/jointset/ground_pelvis/pelvis_tx/value	/jointset/ground_pelvis/pelvis_ty/value	/jointset/hip_l/hip_flexion_l/value	/jointset/hip_l/hip_adduction_l/value	/jointset/hip_l/hip_rotation_l/value	/jointset/back/lumbar_extension/value	/jointset/patellofemoral_l/patellar_flexion_l/value	/jointset/knee_l/knee_flexion_l/value	/jointset/knee_l/knee_adduction_l/value	/jointset/knee_l/knee_rotation_l/value	/jointset/ankle_l/ankle_angle_l/value	/jointset/subtalar_l/subtalar_angle_l/value	/jointset/ground_pelvis/pelvis_tilt/speed	/jointset/ground_pelvis/pelvis_tx/speed	/jointset/ground_pelvis/pelvis_ty/speed	/jointset/hip_l/hip_flexion_l/speed	/jointset/hip_l/hip_adduction_l/speed	/jointset/hip_l/hip_rotation_l/speed	/jointset/back/lumbar_extension/speed	/jointset/patellofemoral_l/patellar_flexion_l/speed	/jointset/knee_l/knee_flexion_l/speed	/jointset/knee_l/knee_adduction_l/speed	/jointset/knee_l/knee_rotation_l/speed	/jointset/ankle_l/ankle_angle_l/speed	/jointset/subtalar_l/subtalar_angle_l/speed	/forceset/tau_hip_flexion_l	/forceset/tau_hip_adduction_l	/forceset/tau_hip_rotation_l	/forceset/tau_knee_flexion_l	/forceset/tau_ankle_angle_l	/forceset/tau_subtalar_angle_l	/forceset/tau_lumbar_extension	lambda_cid13_p0	lambda_cid13_p1	lambda_cid13_p2	lambda_cid13_p3	lambda_cid13_p4	lambda_cid13_p5	lambda_cid14_p0	/jointset/ground_pelvis/pelvis_tilt/accel	/jointset/ground_pelvis/pelvis_tx/accel	/jointset/ground_pelvis/pelvis_ty/accel	/jointset/hip_l/hip_flexion_l/accel	/jointset/hip_l/hip_adduction_l/accel	/jointset/hip_l/hip_rotation_l/accel	/jointset/back/lumbar_extension/accel	/jointset/patellofemoral_l/patellar_flexion_l/accel	/jointset/knee_l/knee_flexion_l/accel	/jointset/knee_l/knee_adduction_l/accel	/jointset/knee_l/knee_rotation_l/accel	/jointset/ankle_l/ankle_angle_l/accel	/jointset/subtalar_l/subtalar_angle_l/accel	gamma_cid13_p0	gamma_cid13_p1	gamma_cid13_p2	gamma_cid13_p3	gamma_cid13_p4	gamma_cid13_p5	gamma_cid14_p0
1.5	0.02862038773219569	-0.001763703617102304	0.8754486159228776	0.561399678521261	-0.3144821463364619	-0.1735913153652003	-0.7787337035356106	0.6587060174919518	0.6587060174917934	-0.1067798222804935	-0.1745129139850537	0.1198383984454138	0.02143369506741366	0.2721969083056767	0.2292618446600737	0.3192792583531682	-1.685025185370623	0.09736461657565329	-0.5474078065718435	0.8488952221158208	-1.687707479118283	-1.687707479118274	-0.1268034447098117	2.35990244601066e-05	-0.3707663378473522	-0.01898496961048209	-0.1761393886154473	0.02771236166463624	-0.004670354271519484	-0.2028244550035733	0.06569106842609083	0.03584521165448935	0.2640850902250752	-21.64527774835078	-14.29351456425322	4.698198937865168	-5.326376851835269	-674.0489401956146	-73.52273139656732	-19.34100324749614	-0.10133158808446	0.5193396713387727	-0.4916348449939133	-0.4949533389612979	0.3261532628870601	-0.2317551938262551	1.645947125129976	-0.7240948606858771	-0.7240948606858838	-0.3207635808367643	0.03765851940254179	-0.1139317866230258	0.3122216411806036	1.853435857821739e-08	1.191974378374529e-06	6.255290096753136e-08	1.715630594903936e-07	8.931421839540104e-08	3.242510995559067e-07	1.119577650920506e-07
1.51	0.03133699004847937	0.0005546374930113244	0.8786161989760133	0.5445265919786088	-0.3134926669511036	-0.1790781417232778	-0.7701638040408774	0.6417949626617555	0.6417949626615854	-0.1080637875585832	-0.1745126726286174	0.1161255071275303	0.02125905960690719	0.271088303832743	0.2343787760101445	0.3141755724652937	-1.689371563674114	0.1005218881259591	-0.5498975453653511	0.8649525064743577	-1.694266495513153	-1.694266495513154	-0.1299883211416132	2.443860988898972e-05	-0.371746079865449	-0.01593388962816613	-0.1692425784682534	0.02612530282440227	-0.004621701445696421	-0.2003288890793967	0.06676690995656	0.03531227158237019	0.2574346838728168	-21.12024605379069	-14.20016789182531	4.736065518376646	-5.353579945331778	-670.5423819082137	-73.81608576215487	-19.85660884840063	-0.1209236438745843	0.5037669366425951	-0.5289867777310155	-0.3714100183818295	0.3089293801272252	-0.2485028565830533	1.565793537814085	-0.5862776369014558	-0.5862776369030139	-0.3169390688023568	-0.01872416764957301	-0.08008433417392337	0.3025711809811997	5.620106818355169e-09	1.234523144745413e-06	1.148027446430958e-07	1.813317992163587e-07	8.202592753344628e-08	3.178641172925566e-07	1.084194763458521e-07
1.52	0.03404144656664003	0.00292332733058617	0.8817308949068607	0.5276166556644559	-0.3124719317944384	-0.1845880493961842	-0.7614372968132387	0.624825423146	0.6248254231458308	-0.1093795194798695	-0.1745124270454961	0.1124048006045115	0.02111513894706871	0.2697677486807329	0.2393315901523172	0.3087018338955407	-1.69239513967115	0.1036157708372621	-0.5520240695376627	0.8802167686968265	-1.699404416228581	-1.699404416228592	-0.1331567733514366	2.444436481422899e-05	-0.3723293788743838	-0.0128420094768861	-0.1623457683210548	0.02453824398416715	-0.004573048619749643	-0.1978333231552263	0.06784275148702738	0.03477933151024955	0.250784277520563	-20.59997286231827	-14.10536883845445	4.772993318148419	-5.38780204014614	-667.1218511309679	-74.12784161044385	-20.35000270162329	-0.1437217238996647	0.4865162297590871	-0.5656453813695936	-0.2303928776701448	0.3134754950864922	-0.1591122695870463	1.487342697916384	-0.4398757247973972	-0.4398757247973927	-0.3174787364411241	0.03749175330181803	-0.03464318479071862	0.3203816749734013	-6.117139687662634e-09	1.254668355892007e-06	1.565622120123135e-07	1.873671819908453e-07	7.457574589648454e-08	3.071365830046622e-07	1.040156471602946e-07
1.53	0.03673161056449868	0.005340635853437884	0.8847890512141018	0.5106832387288255	-0.311420516416315	-0.190117520573952	-0.7525622250350534	0.6078116847859675	0.6078116847858639	-0.1107266495016973	-0.1745122227115214	0.1086802285552937	0.02100240808039431	0.2682303469584266	0.2440934527793148	0.3028729402005244	-1.694058277455418	0.1066564044034403	-0.5538149454710219	0.8946496201043491	-1.703099679033603	-1.703099679033616	-0.1362593542166149	1.153693550980187e-05	-0.3725224802318731	-0.009698539123455016	-0.1554620903757903	0.0230861814049204	-0.004576796072645523	-0.1952161167587316	0.06865124080649736	0.03411971369028839	0.2441094673152856	-20.18061943987484	-13.93460365699113	4.794063828070545	-5.271125441416732	-663.8112006994591	-74.30198387908871	-20.81810947520691	-0.1639690903169399	0.4655601418736508	-0.5999718918075096	-0.09979594837202505	0.2975323383838478	-0.1807132296154581	1.399061336857733	-0.2978342152055981	-0.2978342152058556	-0.3049459111321196	-0.0213912659727801	-0.002228968382803943	0.3119526964501684	-1.660381811147076e-08	1.251009789612793e-06	1.871756545560379e-07	1.894358730043859e-07	6.695355531107786e-08	2.917972121906894e-07	9.869218125791827e-08
1.54	0.03940535660635312	0.007804470775100492	0.8877872264787446	0.4937400860714439	-0.3103390596923285	-0.1956632281059332	-0.743547263747855	0.5907682972665204	0.5907682972664711	-0.1121044649620976	-0.1745122893068177	0.1049556084210705	0.02092123651343869	0.2664841574792752	0.2486368699144962	0.2967056253759102	-1.694342284022363	0.1096240400096292	-0.5552713403805836	0.9081946704993631	-1.705334248112663	-1.705334248112678	-0.1392938610648278	-2.974149084344585e-05	-0.3723389958755541	-0.006530149533135314	-0.1485784124305064	0.02163411882568555	-0.004580543525609837	-0.1925989103622257	0.0694597301259714	0.03346009587034102	0.2374346571100188	-19.7665213375944	-13.76194515072849	4.813720963023917	-5.158034966217895	-660.5928809350959	-74.49044255594639	-21.25789607840106	-0.1854792752685829	0.4428271313957738	-0.6333296072891774	0.04543336579450135	0.2988759030886545	-0.09221606482753847	1.309782495414695	-0.1477369796048694	-0.1477369796048547	-0.3038639330480366	0.03181755389205203	0.04067395797087926	0.3253655223511063	-1.726440436092789e-08	1.223542151251759e-06	1.686627951211467e-07	1.840140787162798e-07	6.720949494574755e-08	2.868378932528908e-07	9.762166470956522e-08
1.55	0.04206057969458669	0.01031263451371707	0.8907221119909946	0.4768009396201559	-0.3092283434283711	-0.201221471358589	-0.7344012918512162	0.5737098325897545	0.5737098325896848	-0.1135125417123224	-0.1745126232967244	0.101234726550405	0.0208718235763786	0.2645247488238933	0.2529577461686411	0.2902226861380617	-1.693260374902381	0.1125047718997543	-0.5563169354344111	0.9208501068084933	-1.706115591251093	-1.706115591251087	-0.1423121737351842	-3.736986176608009e-05	-0.3717714328657216	-0.003349151792776364	-0.141658207692348	0.01996593735926509	-0.004643176105326275	-0.1902178654074285	0.07052412734432754	0.03284807869455145	0.2308080478081833	-19.28471523305063	-13.61918044579714	4.835134783750627	-5.104440784061119	-657.6442877918723	-74.77603637515503	-21.66636573153047	-0.2065393051351429	0.4210305572624844	-0.6630783769774864	0.1735512000334266	0.2803485509716038	-0.1015889416959674	1.220983895749401	-0.006889298292315157	-0.00688929828918298	-0.2992238745636863	-0.01710526183184853	0.07471764907117906	0.3147743773408839	-6.603623539937767e-09	1.168642321144282e-06	9.354789210220169e-08	1.699619426675812e-07	7.654241070354823e-08	2.938381993028576e-07	1.014512854604127e-07
1.56	0.04469513516737673	0.01286286955184305	0.893590707651877	0.4598794085630576	-0.3080892845017131	-0.2067883421049904	-0.725133253652068	0.5566508432181394	0.5566508432180466	-0.1149504833773578	-0.1745130440161902	0.09752150434515434	0.02085428211221465	0.2623506343900149	0.2570511298163783	0.2834476551024164	-1.690819205185062	0.115292572549766	-0.5569968391296632	0.9326079310011014	-1.705439187082731	-1.705439187082704	-0.1452668440269102	-4.708740258562272e-05	-0.3708070627926203	-0.000155854953913689	-0.1347380029541814	0.01829775589284604	-0.004705808685039758	-0.1878368204526285	0.07158852456268412	0.03223606151876447	0.2241814385063538	-18.80853935630752	-13.47358091689005	4.853984898599859	-5.05342901984559	-654.7941643973624	-75.07805649356736	-22.04063068122138	-0.2284204309677915	0.3973286101141749	-0.6917479668485144	0.3172854852618177	0.280289655065967	-0.01907779311247235	1.130260072110271	0.1438124817538598	0.1438124817538817	-0.2911354573219542	0.0313997199126711	0.1200353706245716	0.3278253420518324	-5.104209982399428e-09	1.121780689128907e-06	6.504531377947832e-08	1.607963216829064e-07	7.815512586675749e-08	2.86657035241829e-07	9.986668137246667e-08
1.57	0.04730684360910146	0.01545283481621283	0.8963901491766493	0.4429892465749964	-0.3069227322814075	-0.212360217216446	-0.7157521569815677	0.5396060285154938	0.5396060285154541	-0.1164174060358189	-0.1745135419866299	0.09381995131180801	0.02086884670620135	0.2599550695291606	0.2608972049717022	0.2763979119617046	-1.686975598178396	0.118002458167399	-0.5573223117017403	0.9434548514094179	-1.703268985151212	-1.703268985151267	-0.1480956662028038	-5.910011353839098e-05	-0.3694356302703588	0.00307222912968336	-0.1278938511842996	0.01669682694481677	-0.004811457851460925	-0.1853641776131495	0.0724567523565785	0.03157404907062652	0.2176303324550261	-18.41109887066224	-13.29019612578633	4.864199223138561	-4.90861928331988	-652.1393740990536	-75.32069277899012	-22.3779191922348	-0.2505354547600012	0.3715704508686863	-0.7179850732649278	0.4535217927272895	0.2638674117584199	-0.03083335948910625	1.038425271838205	0.2918219520693985	0.2918219520570356	-0.2752665564471086	-0.01848587179207614	0.155908992554572	0.3206377356000391	-1.505650550417571e-08	1.08496680472866e-06	9.480814132703145e-08	1.577388445282616e-07	7.011759028672762e-08	2.617490335420566e-07	9.151429623602893e-08
1.58	0.04989351421399801	0.01807992552866154	0.8991178137528979	0.4261446453538767	-0.3057295753255954	-0.2179336573276704	-0.7062672876576543	0.5225905554128094	0.5225905554128166	-0.1179119191077856	-0.1745143569052149	0.09013415496358984	0.02091575969984135	0.2573430670236651	0.2644762194321631	0.269092265397691	-1.681707051797397	0.120613519650891	-0.5573098390831686	0.953362461683558	-1.699570867090952	-1.699570867091091	-0.1507849267276589	-0.000110477032204234	-0.3676557257669931	0.006313824976736122	-0.1210496994144137	0.01509589799678509	-0.004917107017891706	-0.1828915347736688	0.07332498015047159	0.0309120366224855	0.2110792264037024	-18.01961346587954	-13.10327111694348	4.87099662541156	-4.763511079623184	-649.5871605721826	-75.57434576036442	-22.67565507109424	-0.2717079598959525	0.3439164711415361	-0.7429286515088753	0.6022733601283305	0.260524828237779	0.04851124501729454	0.9423980452750388	0.4493957075020044	0.4493957075020145	-0.2632231271142563	0.02352687837005796	0.2017297668453016	0.3305276947429553	1.093945934963831e-08	1.053059379145695e-06	-2.784940703100084e-08	1.370447407284457e-07	1.148938960807411e-07	3.039231713881204e-07	1.033137954600213e-07
